<?xml version="1.0" encoding="UTF-8" standalone="no"?>
<svg
   xmlns:dc="http://purl.org/dc/elements/1.1/"
   xmlns:cc="http://creativecommons.org/ns#"
   xmlns:rdf="http://www.w3.org/1999/02/22-rdf-syntax-ns#"
   xmlns:svg="http://www.w3.org/2000/svg"
   xmlns="http://www.w3.org/2000/svg"
   xmlns:sodipodi="http://sodipodi.sourceforge.net/DTD/sodipodi-0.dtd"
   xmlns:inkscape="http://www.inkscape.org/namespaces/inkscape"
   id="svg2"
   viewBox="0 0 341.071 338.846"
   version="1.1"
   inkscape:version="0.91 r13725"
   sodipodi:docname="citra.svg">
  <sodipodi:namedview
     pagecolor="#ffffff"
     bordercolor="#666666"
     borderopacity="1"
     objecttolerance="10"
     gridtolerance="10"
     guidetolerance="10"
     inkscape:pageopacity="0"
     inkscape:pageshadow="2"
     inkscape:window-width="1366"
     inkscape:window-height="742"
     id="namedview18"
     showgrid="false"
     inkscape:zoom="1.3929631"
     inkscape:cx="109.66315"
     inkscape:cy="116.8673"
     inkscape:window-x="0"
     inkscape:window-y="1"
     inkscape:window-maximized="1"
     inkscape:current-layer="svg2" />
  <metadata
     id="metadata101">
    <rdf:RDF>
      <cc:Work
         rdf:about="">
        <dc:format>image/svg+xml</dc:format>
        <dc:type
           rdf:resource="http://purl.org/dc/dcmitype/StillImage" />
        <dc:title />
      </cc:Work>
    </rdf:RDF>
  </metadata>
  <defs
     id="defs99" />
  <ellipse
     style="fill:none"
     id="ellipse11"
     ry="169.423"
     rx="170.535"
     cy="169.423"
     cx="170.535" />
  <circle
     style="fill:#dedede;fill-opacity:1"
     id="circle13"
     r="161.557"
     cy="167.885"
     cx="170.536" />
  <circle
     style="fill:#efebe7;fill-opacity:1"
     id="circle20"
     r="155.295"
     cy="167.885"
     cx="170.536" />
  <g
     id="g22">
    <path
       style="fill:#dedede;fill-opacity:1;stroke:#dedede;stroke-opacity:1"
       id="path31"
       d="M309.704,123.138             c-5.9-7.802-128.517,44.681-128.517,44.681S303.803,221.01,309.704,212.5C322.434,194.142,323.182,140.957,309.704,123.138z" />
    <path
       style="fill:#dedede;fill-opacity:1;stroke:#dedede;stroke-opacity:1"
       id="path38"
       d="M300.518,100.96c-3.98-21.983-41.059-60.12-63.189-63.188             c-9.688-1.345-59.28,122.469-59.28,122.469S302.364,111.149,300.518,100.96z" />
    <path
       style="fill-opacity:1;stroke:#dedede;stroke-opacity:1;fill:#dedede"
       id="path45"
       d="M215.151,28.584c-18.357-12.73-71.543-13.478-89.362,0.001             c-7.801,5.899,44.682,128.516,44.682,128.516S223.663,34.484,215.151,28.584z" />
    <path
       style="fill:#dedede;fill-opacity:1;stroke:#dedede;stroke-opacity:1"
       id="path52"
       d="M162.893,160.239c0,0-49.092-124.315-59.281-122.469             c-21.982,3.979-60.12,41.058-63.188,63.189C39.078,110.646,162.893,160.239,162.893,160.239z" />
    <path
       style="fill:#dedede;fill-opacity:1;stroke:#dedede;stroke-opacity:1"
       id="path59"
       d="M31.236,123.136c-12.73,18.357-13.479,71.543,0,89.362             c5.898,7.801,128.516-44.682,128.516-44.682S37.135,114.625,31.236,123.136z" />
    <path
       style="fill:#dedede;fill-opacity:1;stroke:#dedede;stroke-opacity:1"
       id="path68"
       d="M40.422,234.676c3.979,21.982,41.057,60.12,63.188,63.188             c9.687,1.346,59.279-122.468,59.279-122.468S38.574,224.487,40.422,234.676z" />
    <path
       style="fill:#dedede;fill-opacity:1;stroke:#dedede;stroke-opacity:1"
       id="path77"
       d="M125.787,307.051c18.357,12.73,71.543,13.48,89.362,0             c7.801-5.898-44.681-128.515-44.681-128.515S117.275,301.153,125.787,307.051z" />
    <path
       style="fill:#dedede;fill-opacity:1;stroke:#dedede;stroke-opacity:1"
       id="path86"
       d="M178.047,175.398c0,0,49.09,124.315,59.28,122.467             c21.982-3.979,60.121-41.057,63.189-63.188C301.86,224.991,178.047,175.398,178.047,175.398z" />
  </g>
  <circle
     style="fill:none;fill-opacity:1"
     id="circle95"
     r="161.557"
     cy="167.885"
     cx="170.536" />
</svg>
